<svg width="50" height="50" viewBox="0 0 50 50" fill="none" xmlns="http://www.w3.org/2000/svg">
<path d="M25 50C38.8071 50 50 38.8071 50 25C50 11.1929 38.8071 0 25 0C11.1929 0 0 11.1929 0 25C0 38.8071 11.1929 50 25 50Z" fill="#C8DCF0"/>
<path d="M38.2234 37.9786C39.0219 37.9759 39.7868 37.6575 40.3514 37.0929C40.916 36.5283 41.2344 35.7634 41.2371 34.9649V17.6362C41.2344 16.8377 40.916 16.0727 40.3514 15.5081C39.7868 14.9436 39.0219 14.6252 38.2234 14.6225H32.6474V12.5088C32.6461 11.8298 32.3757 11.179 31.8954 10.699C31.4151 10.2191 30.764 9.94921 30.0851 9.94849H20.7426C20.0632 9.94921 19.4119 10.2194 18.9315 10.6998C18.4512 11.1801 18.181 11.8315 18.1803 12.5108V14.6211H12.6035C11.8051 14.6238 11.0401 14.9422 10.4755 15.5068C9.91094 16.0714 9.59255 16.8363 9.58984 17.6348V35.0047C9.59255 35.8031 9.91094 36.5681 10.4755 37.1327C11.0401 37.6973 11.8051 38.0156 12.6035 38.0184H38.2234V37.9786ZM21.1946 12.9622H29.5967V14.619H21.1946V12.9622ZM12.6035 17.6327H38.2234V35.0026H12.6035V17.6327Z" fill="#053360"/>
<path d="M24.9214 29.3075H27.4884C27.4884 27.5055 30.3444 27.1995 30.3444 24.4795C30.3444 22.4735 28.5764 21.3345 26.0264 21.3345C23.7314 21.3345 22.1334 22.2185 21.2154 23.6125L23.2724 24.8195C23.8164 24.0375 24.6494 23.5615 25.7374 23.5615C26.8424 23.5615 27.5734 24.0885 27.5734 24.9215C27.5734 26.4005 24.9214 26.9275 24.9214 29.3075ZM26.2134 33.5745C27.1654 33.5745 27.8454 32.8775 27.8454 32.0275C27.8454 31.1605 27.1654 30.5145 26.2134 30.5145C25.2614 30.5145 24.5814 31.1605 24.5814 32.0275C24.5814 32.8775 25.2614 33.5745 26.2134 33.5745Z" fill="#CE0037"/>
</svg>
