<svg width="108" height="98" viewBox="0 0 108 98" fill="none" xmlns="http://www.w3.org/2000/svg">
<path fill-rule="evenodd" clip-rule="evenodd" d="M0.00101388 62.8473L25.4451 36.7503C26.4405 35.7273 27.8049 35.1531 29.2289 35.1531H78.7722C80.196 35.1531 81.5604 35.7273 82.5559 36.7503L108 62.8473V89.5187C108 94.2048 104.21 98 99.5296 98H8.47041C3.79029 98 0 94.2048 0 89.5187L0.00101388 62.8473ZM7.94408 60.7154L28.589 39.4104H79.4114L100.056 60.7154H73.5895V65.0254C73.5895 70.2925 69.3181 74.5628 64.0578 74.5628H43.9395C38.6792 74.5628 34.4078 70.2925 34.4078 65.0254V60.7154H7.94408ZM4.21976 65.0518H30.376C30.376 72.4243 36.3417 78.3975 43.7046 78.3975H64.2971C71.6602 78.3975 77.6257 72.4241 77.6257 65.0518H103.782V88.7072C103.782 91.5056 101.514 93.7762 98.7194 93.7762H9.28193C6.48709 93.7762 4.21943 91.5056 4.21943 88.7072L4.21976 65.0518ZM56.1171 24.4997C56.1171 25.6745 55.1679 26.6316 54.0012 26.6316C52.8344 26.6316 51.8852 25.6745 51.8852 24.4997V2.13186C51.8852 0.957012 52.8344 0 54.0012 0C55.1679 0 56.1171 0.957045 56.1171 2.13186V24.4997ZM69.8149 26.4204C69.5117 27.5556 68.345 28.2288 67.2177 27.9252C66.0905 27.6216 65.4181 26.4534 65.7213 25.318L71.4761 3.70886C71.7793 2.57362 72.9394 1.9004 74.0667 2.204C75.2005 2.50762 75.8728 3.67586 75.5696 4.81117L69.8149 26.4204ZM42.7424 25.3181C43.0456 26.4534 42.3732 27.6216 41.246 27.9253C40.1188 28.2289 38.952 27.5557 38.6554 26.4204L32.8941 4.81123C32.5974 3.67598 33.2632 2.50771 34.397 2.20407C35.5242 1.90046 36.6844 2.57369 36.9876 3.70893L42.7424 25.3181Z" fill="#041E42"/>
</svg>
